<svg width="304" height="62" viewBox="0 0 304 62" fill="none" xmlns="http://www.w3.org/2000/svg">
<path d="M0 0H304V50C304 56.6274 298.627 62 292 62H12C5.37259 62 0 56.6274 0 50V0Z" fill="#EFEFEF"/>
<rect x="251" y="9" width="45" height="45" rx="22.5" fill="#6BFF37"/>
<path d="M39.416 32.264C40.488 32.552 41.304 33.048 41.864 33.752C42.424 34.44 42.704 35.304 42.704 36.344C42.704 37.816 42.16 38.96 41.072 39.776C39.984 40.592 38.408 41 36.344 41H28.376V24.2H35.888C37.776 24.2 39.248 24.576 40.304 25.328C41.36 26.08 41.888 27.144 41.888 28.52C41.888 29.4 41.672 30.16 41.24 30.8C40.824 31.44 40.216 31.928 39.416 32.264ZM31.448 31.376H35.624C36.632 31.376 37.4 31.176 37.928 30.776C38.456 30.376 38.72 29.784 38.72 29C38.72 28.216 38.456 27.624 37.928 27.224C37.4 26.808 36.632 26.6 35.624 26.6H31.448V31.376ZM36.248 38.6C38.456 38.6 39.56 37.768 39.56 36.104C39.56 34.472 38.456 33.656 36.248 33.656H31.448V38.6H36.248ZM57.8831 35.864H55.5551V41H52.5551V28.184H55.5551V33.368H57.9551L61.7471 28.184H64.9631L60.3071 34.352L65.2751 41H61.7471L57.8831 35.864ZM72.6811 41.168C71.3851 41.168 70.2171 40.888 69.1771 40.328C68.1371 39.768 67.3211 38.992 66.7291 38C66.1531 36.992 65.8651 35.856 65.8651 34.592C65.8651 33.328 66.1531 32.2 66.7291 31.208C67.3211 30.216 68.1371 29.44 69.1771 28.88C70.2171 28.32 71.3851 28.04 72.6811 28.04C73.9931 28.04 75.1691 28.32 76.2091 28.88C77.2491 29.44 78.0571 30.216 78.6331 31.208C79.2251 32.2 79.5211 33.328 79.5211 34.592C79.5211 35.856 79.2251 36.992 78.6331 38C78.0571 38.992 77.2491 39.768 76.2091 40.328C75.1691 40.888 73.9931 41.168 72.6811 41.168ZM72.6811 38.6C73.7851 38.6 74.6971 38.232 75.4171 37.496C76.1371 36.76 76.4971 35.792 76.4971 34.592C76.4971 33.392 76.1371 32.424 75.4171 31.688C74.6971 30.952 73.7851 30.584 72.6811 30.584C71.5771 30.584 70.6651 30.952 69.9451 31.688C69.2411 32.424 68.8891 33.392 68.8891 34.592C68.8891 35.792 69.2411 36.76 69.9451 37.496C70.6651 38.232 71.5771 38.6 72.6811 38.6ZM89.5888 28.04C90.8368 28.04 91.9488 28.312 92.9248 28.856C93.9168 29.4 94.6928 30.168 95.2528 31.16C95.8128 32.152 96.0928 33.296 96.0928 34.592C96.0928 35.888 95.8128 37.04 95.2528 38.048C94.6928 39.04 93.9168 39.808 92.9248 40.352C91.9488 40.896 90.8368 41.168 89.5888 41.168C87.8608 41.168 86.4928 40.592 85.4848 39.44V45.656H82.4848V28.184H85.3408V29.864C85.8368 29.256 86.4448 28.8 87.1648 28.496C87.9008 28.192 88.7088 28.04 89.5888 28.04ZM89.2528 38.6C90.3568 38.6 91.2608 38.232 91.9648 37.496C92.6848 36.76 93.0448 35.792 93.0448 34.592C93.0448 33.392 92.6848 32.424 91.9648 31.688C91.2608 30.952 90.3568 30.584 89.2528 30.584C88.5328 30.584 87.8848 30.752 87.3088 31.088C86.7328 31.408 86.2768 31.872 85.9408 32.48C85.6048 33.088 85.4368 33.792 85.4368 34.592C85.4368 35.392 85.6048 36.096 85.9408 36.704C86.2768 37.312 86.7328 37.784 87.3088 38.12C87.8848 38.44 88.5328 38.6 89.2528 38.6ZM106.547 34.328C107.347 34.552 107.963 34.92 108.395 35.432C108.843 35.928 109.067 36.528 109.067 37.232C109.067 38.016 108.803 38.712 108.275 39.32C107.747 39.912 107.019 40.376 106.091 40.712C105.163 41.048 104.107 41.216 102.923 41.216C101.931 41.216 100.963 41.104 100.019 40.88C99.075 40.64 98.219 40.304 97.451 39.872L98.315 37.64C98.939 37.992 99.643 38.264 100.427 38.456C101.211 38.648 101.995 38.744 102.779 38.744C103.787 38.744 104.571 38.592 105.131 38.288C105.707 37.968 105.995 37.536 105.995 36.992C105.995 36.496 105.771 36.112 105.323 35.84C104.891 35.568 104.275 35.432 103.475 35.432H100.979V33.416H103.235C103.987 33.416 104.571 33.288 104.987 33.032C105.419 32.776 105.635 32.416 105.635 31.952C105.635 31.488 105.379 31.12 104.867 30.848C104.355 30.576 103.651 30.44 102.755 30.44C101.475 30.44 100.123 30.752 98.699 31.376L97.931 29.168C99.611 28.384 101.307 27.992 103.019 27.992C104.107 27.992 105.083 28.144 105.947 28.448C106.811 28.736 107.483 29.152 107.963 29.696C108.459 30.224 108.707 30.832 108.707 31.52C108.707 32.144 108.515 32.704 108.131 33.2C107.747 33.68 107.219 34.056 106.547 34.328ZM112.18 28.184H115.18V36.632L122.26 28.184H124.996V41H121.996V32.552L114.94 41H112.18V28.184ZM129.032 28.184H132.032V33.392H138.488V28.184H141.488V41H138.488V35.936H132.032V41H129.032V28.184ZM157.604 28.184L151.604 42.032C151.044 43.424 150.364 44.4 149.564 44.96C148.764 45.536 147.796 45.824 146.66 45.824C146.02 45.824 145.388 45.72 144.764 45.512C144.14 45.304 143.628 45.016 143.228 44.648L144.428 42.44C144.716 42.712 145.052 42.928 145.436 43.088C145.836 43.248 146.236 43.328 146.636 43.328C147.164 43.328 147.596 43.192 147.932 42.92C148.284 42.648 148.604 42.192 148.892 41.552L149.108 41.048L143.516 28.184H146.636L150.668 37.664L154.724 28.184H157.604Z" fill="#151515"/>
<path d="M275.55 30.725C277.167 30.925 278.4 31.475 279.25 32.375C280.1 33.275 280.525 34.4 280.525 35.75C280.525 36.7667 280.267 37.6917 279.75 38.525C279.233 39.3583 278.45 40.025 277.4 40.525C276.367 41.0083 275.1 41.25 273.6 41.25C272.35 41.25 271.142 41.075 269.975 40.725C268.825 40.3583 267.842 39.8583 267.025 39.225L268.425 36.7C269.058 37.2333 269.825 37.6583 270.725 37.975C271.642 38.275 272.583 38.425 273.55 38.425C274.7 38.425 275.6 38.1917 276.25 37.725C276.917 37.2417 277.25 36.5917 277.25 35.775C277.25 34.9583 276.933 34.325 276.3 33.875C275.683 33.4083 274.733 33.175 273.45 33.175H271.85V30.95L275.825 26.225H267.875V23.5H279.8V25.675L275.55 30.725Z" fill="white"/>
</svg>
