<svg width="40" height="40" viewBox="0 0 40 40" fill="none" xmlns="http://www.w3.org/2000/svg">
<rect width="40" height="40" rx="8" fill="#6BFF37"/>
<path d="M25.85 9C23.588 9 21.417 10.0594 20 11.7335C18.583 10.0594 16.412 9 14.15 9C10.146 9 7 12.1651 7 16.1935C7 21.1373 11.42 25.1657 18.115 31.2866L20 33L21.885 31.2736C28.58 25.1657 33 21.1373 33 16.1935C33 12.1651 29.854 9 25.85 9ZM20.13 29.3379L20 29.4687L19.87 29.3379C13.682 23.7008 9.6 19.9733 9.6 16.1935C9.6 13.5777 11.55 11.6158 14.15 11.6158C16.152 11.6158 18.102 12.9106 18.791 14.7025H21.222C21.898 12.9106 23.848 11.6158 25.85 11.6158C28.45 11.6158 30.4 13.5777 30.4 16.1935C30.4 19.9733 26.318 23.7008 20.13 29.3379Z" fill="#101010"/>
</svg>
