<svg width="40" height="40" viewBox="0 0 40 40" fill="none" xmlns="http://www.w3.org/2000/svg">
<rect width="40" height="40" rx="8" fill="#6BFF37"/>
<path d="M20 13.5333C24.8236 13.5333 29.1255 16.2313 31.2255 20.5C29.1255 24.7687 24.8236 27.4667 20 27.4667C15.1764 27.4667 10.8745 24.7687 8.77455 20.5C10.8745 16.2313 15.1764 13.5333 20 13.5333ZM20 11C13.6364 11 8.20182 14.9393 6 20.5C8.20182 26.0607 13.6364 30 20 30C26.3636 30 31.7982 26.0607 34 20.5C31.7982 14.9393 26.3636 11 20 11ZM20 17.3333C21.7564 17.3333 23.1818 18.752 23.1818 20.5C23.1818 22.248 21.7564 23.6667 20 23.6667C18.2436 23.6667 16.8182 22.248 16.8182 20.5C16.8182 18.752 18.2436 17.3333 20 17.3333ZM20 14.8C16.8436 14.8 14.2727 17.3587 14.2727 20.5C14.2727 23.6413 16.8436 26.2 20 26.2C23.1564 26.2 25.7273 23.6413 25.7273 20.5C25.7273 17.3587 23.1564 14.8 20 14.8Z" fill="#EFEFEF"/>
</svg>
